<svg width="41" height="40" viewBox="0 0 41 40" fill="none" xmlns="http://www.w3.org/2000/svg">
<g id="ant-design:twitter-circle-filled">
<path id="Vector" d="M20.333 2.5C10.6689 2.5 2.83301 10.3359 2.83301 20C2.83301 29.6641 10.6689 37.5 20.333 37.5C29.9971 37.5 37.833 29.6641 37.833 20C37.833 10.3359 29.9971 2.5 20.333 2.5ZM28.7432 15.6914C28.7549 15.875 28.7549 16.0664 28.7549 16.2539C28.7549 21.9883 24.3877 28.5938 16.4072 28.5938C13.9463 28.5938 11.665 27.8789 9.74316 26.6484C10.0947 26.6875 10.4307 26.7031 10.79 26.7031C12.8213 26.7031 14.6885 26.0156 16.1768 24.8516C14.2705 24.8125 12.6689 23.5625 12.1221 21.8438C12.79 21.9414 13.3916 21.9414 14.0791 21.7656C13.0976 21.5662 12.2153 21.0331 11.5823 20.257C10.9492 19.4808 10.6044 18.5094 10.6064 17.5078V17.4531C11.1807 17.7773 11.8564 17.9766 12.5635 18.0039C11.9691 17.6078 11.4817 17.0711 11.1444 16.4415C10.8071 15.8119 10.6304 15.1088 10.6299 14.3945C10.6299 13.5859 10.8408 12.8477 11.2197 12.207C12.3092 13.5482 13.6687 14.6451 15.2098 15.4264C16.751 16.2078 18.4393 16.6561 20.165 16.7422C19.5518 13.793 21.7549 11.4062 24.4033 11.4062C25.6533 11.4062 26.7783 11.9297 27.5713 12.7734C28.5518 12.5898 29.4893 12.2227 30.3252 11.7305C30.001 12.7344 29.3213 13.582 28.4189 14.1172C29.2939 14.0234 30.1377 13.7812 30.9189 13.4414C30.3291 14.3086 29.5908 15.0781 28.7432 15.6914Z" fill="black"/>
</g>
</svg>
