<svg width="158" height="27" viewBox="0 0 158 27" fill="none" xmlns="http://www.w3.org/2000/svg">
<g id="Socials">
<path id="fa-twitter" d="M22.9804 7.22886C22.3291 8.23672 21.5417 9.09546 20.6182 9.80507C20.6279 9.94906 20.6328 10.165 20.6328 10.453C20.6328 11.7899 20.4481 13.1269 20.0787 14.4639C19.7093 15.7905 19.1455 17.0658 18.3872 18.2896C17.6387 19.5135 16.7444 20.5985 15.7042 21.5446C14.6641 22.4805 13.4101 23.2312 11.9422 23.7969C10.4743 24.3522 8.90441 24.6299 7.23241 24.6299C4.59802 24.6299 2.18722 23.8843 0 22.3931C0.340234 22.4342 0.719352 22.4548 1.13735 22.4548C3.32457 22.4548 5.27363 21.7452 6.98452 20.3259C5.96382 20.3054 5.05005 19.9763 4.24321 19.3386C3.43636 18.6907 2.88227 17.868 2.58092 16.8704C2.90171 16.9218 3.1982 16.9475 3.47039 16.9475C3.88839 16.9475 4.30153 16.891 4.70981 16.7778C3.62106 16.5413 2.71701 15.9705 1.99766 15.0655C1.28803 14.1502 0.933214 13.0909 0.933214 11.8876V11.8259C1.59424 12.2167 2.30387 12.4276 3.06211 12.4584C2.42052 12.0059 1.91017 11.4146 1.53105 10.6844C1.15194 9.9542 0.962377 9.16231 0.962377 8.30871C0.962377 7.40369 1.17624 6.56552 1.60396 5.79419C2.7802 7.32656 4.20918 8.55553 5.89091 9.48112C7.58236 10.3964 9.39046 10.9055 11.3152 11.0083C11.2374 10.6175 11.1986 10.237 11.1986 9.86678C11.1986 8.48868 11.6554 7.31627 12.5692 6.34955C13.4927 5.37254 14.6058 4.88403 15.9084 4.88403C17.2693 4.88403 18.4164 5.40853 19.3496 6.45753C20.4092 6.24156 21.4056 5.84047 22.3388 5.25427C21.9791 6.43696 21.2889 7.35227 20.2682 8.00018C21.1723 7.89734 22.0763 7.64023 22.9804 7.22886Z" fill="black"/>
<path id="fa-facebook-square" d="M80.1189 1.12018V5.19276H77.8296C76.9936 5.19276 76.4298 5.37788 76.1382 5.74812C75.8465 6.11835 75.7007 6.6737 75.7007 7.41418V10.3298H79.9731L79.4044 14.896H75.7007V26.6047H71.2388V14.896H67.5205V10.3298H71.2388V6.96681C71.2388 5.05393 71.7443 3.57298 72.7553 2.52399C73.7662 1.4647 75.1126 0.935059 76.7943 0.935059C78.2233 0.935059 79.3315 0.996765 80.1189 1.12018Z" fill="black"/>
<path id="fa-google-plus" d="M145.156 15.0196C145.156 17.1587 144.733 19.0664 143.887 20.7428C143.041 22.4088 141.836 23.7098 140.271 24.6457C138.706 25.5918 136.912 26.0649 134.89 26.0649C133.442 26.0649 132.057 25.7667 130.735 25.1702C129.413 24.5737 128.275 23.7715 127.323 22.7636C126.37 21.7558 125.612 20.5525 125.048 19.1538C124.484 17.7552 124.202 16.2897 124.202 14.7573C124.202 13.2249 124.484 11.7594 125.048 10.3608C125.612 8.9621 126.37 7.75883 127.323 6.75097C128.275 5.74311 129.413 4.94093 130.735 4.34444C132.057 3.74795 133.442 3.44971 134.89 3.44971C137.671 3.44971 140.057 4.437 142.05 6.41159L139.148 9.35804C138.011 8.19592 136.592 7.61485 134.89 7.61485C133.695 7.61485 132.586 7.93367 131.566 8.57129C130.555 9.20892 129.753 10.0779 129.16 11.1784C128.567 12.2685 128.27 13.4615 128.27 14.7573C128.27 16.0531 128.567 17.2513 129.16 18.3517C129.753 19.4418 130.555 20.3057 131.566 20.9433C132.586 21.5809 133.695 21.8998 134.89 21.8998C135.697 21.8998 136.436 21.7815 137.107 21.545C137.787 21.3084 138.346 21.0153 138.784 20.6656C139.221 20.3057 139.6 19.8995 139.921 19.447C140.251 18.9944 140.49 18.5676 140.635 18.1666C140.791 17.7655 140.898 17.3849 140.956 17.025H134.89V13.1375H144.981C145.097 13.7854 145.156 14.4128 145.156 15.0196ZM157.798 13.1375V16.3771H154.75V19.6012H151.688V16.3771H148.641V13.1375H151.688V9.9134H154.75V13.1375H157.798Z" fill="black"/>
</g>
</svg>
