<svg width="29" height="21" viewBox="0 0 29 21" fill="none" xmlns="http://www.w3.org/2000/svg">
<path id="Vector" d="M2.29572 0.509979H12.2625C12.7912 0.509979 13.2982 0.719993 13.672 1.09382C14.0458 1.46765 14.2559 1.97466 14.2559 2.50333C14.2559 3.03201 14.0458 3.53902 13.672 3.91285C13.2982 4.28668 12.7912 4.49669 12.2625 4.49669H2.29572C1.76705 4.49669 1.26004 4.28668 0.886208 3.91285C0.512382 3.53902 0.302368 3.03201 0.302368 2.50333C0.302368 1.97466 0.512382 1.46765 0.886208 1.09382C1.26004 0.719993 1.76705 0.509979 2.29572 0.509979ZM16.2492 16.4568H26.216C26.7447 16.4568 27.2517 16.6668 27.6255 17.0407C27.9993 17.4145 28.2093 17.9215 28.2093 18.4502C28.2093 18.9788 27.9993 19.4859 27.6255 19.8597C27.2517 20.2335 26.7447 20.4435 26.216 20.4435H16.2492C15.7205 20.4435 15.2135 20.2335 14.8397 19.8597C14.4659 19.4859 14.2559 18.9788 14.2559 18.4502C14.2559 17.9215 14.4659 17.4145 14.8397 17.0407C15.2135 16.6668 15.7205 16.4568 16.2492 16.4568ZM2.29572 8.4834H26.216C26.7447 8.4834 27.2517 8.69341 27.6255 9.06724C27.9993 9.44107 28.2093 9.94809 28.2093 10.4768C28.2093 11.0054 27.9993 11.5124 27.6255 11.8863C27.2517 12.2601 26.7447 12.4701 26.216 12.4701H2.29572C1.76705 12.4701 1.26004 12.2601 0.886208 11.8863C0.512382 11.5124 0.302368 11.0054 0.302368 10.4768C0.302368 9.94809 0.512382 9.44107 0.886208 9.06724C1.26004 8.69341 1.76705 8.4834 2.29572 8.4834Z" fill="white"/>
</svg>
